<?xml version="1.0" standalone="no"?>
<!DOCTYPE svg PUBLIC "-//W3C//DTD SVG 20010904//EN"
 "http://www.w3.org/TR/2001/REC-SVG-20010904/DTD/svg10.dtd">
<svg version="1.0" xmlns="http://www.w3.org/2000/svg"
 width="512.000000pt" height="512.000000pt" viewBox="0 0 512.000000 512.000000"
 preserveAspectRatio="xMidYMid meet">

<g transform="translate(0.000000,512.000000) scale(0.100000,-0.100000)"
fill="#000000" stroke="none">
<path d="M2346 4629 c-814 -86 -1506 -643 -1760 -1419 -171 -521 -132 -1074
109 -1565 419 -855 1358 -1313 2291 -1120 619 129 1156 546 1439 1120 393 795
235 1750 -395 2385 -433 437 -1071 664 -1684 599z m399 -319 c531 -61 1001
-350 1289 -792 446 -685 360 -1589 -207 -2176 -154 -158 -293 -261 -483 -355
-795 -397 -1756 -139 -2252 604 -343 513 -384 1194 -108 1749 95 191 196 328
353 481 288 281 654 450 1063 492 78 8 260 6 345 -3z"/>
<path d="M2420 3504 c-177 -38 -348 -171 -429 -334 -71 -144 -91 -315 -45
-377 39 -52 71 -68 134 -68 99 0 146 50 161 169 17 133 77 224 184 276 69 33
199 34 265 2 106 -52 175 -147 186 -261 10 -96 -19 -145 -191 -316 -98 -97
-154 -161 -183 -210 -87 -149 -123 -329 -76 -391 39 -53 71 -69 134 -69 93 0
145 50 160 153 13 91 46 140 200 292 151 149 201 222 245 354 52 156 41 290
-37 446 -129 257 -422 396 -708 334z"/>
<path d="M2495 1746 c-101 -44 -125 -178 -46 -257 65 -65 157 -65 222 0 124
124 -15 327 -176 257z"/>
</g>
</svg>
