<?xml version="1.0" encoding="UTF-8"?>
<svg id="_圖層_1" data-name="圖層 1" xmlns="http://www.w3.org/2000/svg" viewBox="0 0 287.69 392.83">
  <g>
    <ellipse cx="127.85" cy="126.65" rx="23.67" ry="18.32" style="fill: #d71e1e;"/>
    <ellipse cx="155.63" cy="126.65" rx="23.67" ry="18.32" style="fill: #d71e1e;"/>
    <ellipse cx="126.68" cy="269.93" rx="23.67" ry="18.32" style="fill: #d71e1e;"/>
    <path d="m141.78,259.39v-129.17" style="fill: none; stroke: #d71e1e; stroke-linecap: round; stroke-miterlimit: 3.84; stroke-width: 52.75px;"/>
    <ellipse cx="157.19" cy="269.93" rx="23.67" ry="18.32" style="fill: #d71e1e;"/>
    <ellipse cx="152.73" cy="192.27" rx="31.45" ry="24.33" style="fill: #d71e1e;"/>
    <ellipse cx="130.98" cy="192.27" rx="31.45" ry="24.33" style="fill: #d71e1e;"/>
    <path d="m141.78,131.73v36.3m0,51.79v44.83" style="fill: none; stroke: #fff; stroke-linecap: round; stroke-miterlimit: 3.84; stroke-width: 12px;"/>
    <ellipse cx="141.78" cy="129.63" rx="8.62" ry="8.34" style="fill: #fff;"/>
    <path d="m132.81,204.72c4.06-6.18,14.92-5.91,18.34,0m-18.34-17.54c4.06-6.18,14.92-5.91,18.34,0" style="fill: none; stroke: #fff; stroke-linecap: round; stroke-linejoin: round; stroke-width: 10px;"/>
  </g>
  <g>
    <ellipse cx="231.29" cy="22.81" rx="23.67" ry="18.32" style="fill: #d71e1e;"/>
    <ellipse cx="259.08" cy="22.81" rx="23.67" ry="18.32" style="fill: #d71e1e;"/>
    <ellipse cx="230.13" cy="166.08" rx="23.67" ry="18.32" style="fill: #d71e1e;"/>
    <path d="m245.23,155.55V26.38" style="fill: none; stroke: #d71e1e; stroke-linecap: round; stroke-miterlimit: 3.84; stroke-width: 52.75px;"/>
    <ellipse cx="260.63" cy="166.08" rx="23.67" ry="18.32" style="fill: #d71e1e;"/>
    <ellipse cx="256.17" cy="88.42" rx="31.45" ry="24.33" style="fill: #d71e1e;"/>
    <ellipse cx="234.43" cy="88.42" rx="31.45" ry="24.33" style="fill: #d71e1e;"/>
    <path d="m245.23,27.89v36.3m0,51.79v44.83" style="fill: none; stroke: #fff; stroke-linecap: round; stroke-miterlimit: 3.84; stroke-width: 12px;"/>
    <ellipse cx="245.23" cy="25.79" rx="8.62" ry="8.34" style="fill: #fff;"/>
    <path d="m236.26,100.88c4.06-6.18,14.92-5.91,18.34,0m-18.34-17.54c4.06-6.18,14.92-5.91,18.34,0" style="fill: none; stroke: #fff; stroke-linecap: round; stroke-linejoin: round; stroke-width: 10px;"/>
  </g>
  <g>
    <ellipse cx="28.46" cy="22.81" rx="23.67" ry="18.32" style="fill: #d71e1e;"/>
    <ellipse cx="56.24" cy="22.81" rx="23.67" ry="18.32" style="fill: #d71e1e;"/>
    <ellipse cx="27.29" cy="166.08" rx="23.67" ry="18.32" style="fill: #d71e1e;"/>
    <path d="m42.39,155.55V26.38" style="fill: none; stroke: #d71e1e; stroke-linecap: round; stroke-miterlimit: 3.84; stroke-width: 52.75px;"/>
    <ellipse cx="57.79" cy="166.08" rx="23.67" ry="18.32" style="fill: #d71e1e;"/>
    <ellipse cx="53.34" cy="88.42" rx="31.45" ry="24.33" style="fill: #d71e1e;"/>
    <ellipse cx="31.59" cy="88.42" rx="31.45" ry="24.33" style="fill: #d71e1e;"/>
    <path d="m42.39,27.89v36.3m0,51.79v44.83" style="fill: none; stroke: #fff; stroke-linecap: round; stroke-miterlimit: 3.84; stroke-width: 12px;"/>
    <ellipse cx="42.39" cy="25.79" rx="8.62" ry="8.34" style="fill: #fff;"/>
    <path d="m33.42,100.88c4.06-6.18,14.92-5.91,18.34,0m-18.34-17.54c4.06-6.18,14.92-5.91,18.34,0" style="fill: none; stroke: #fff; stroke-linecap: round; stroke-linejoin: round; stroke-width: 10px;"/>
  </g>
  <g>
    <ellipse cx="28.31" cy="230.53" rx="23.67" ry="18.32" style="fill: #d71e1e;"/>
    <ellipse cx="56.1" cy="230.53" rx="23.67" ry="18.32" style="fill: #d71e1e;"/>
    <ellipse cx="27.15" cy="373.81" rx="23.67" ry="18.32" style="fill: #d71e1e;"/>
    <path d="m42.25,363.27v-129.17" style="fill: none; stroke: #d71e1e; stroke-linecap: round; stroke-miterlimit: 3.84; stroke-width: 52.75px;"/>
    <ellipse cx="57.65" cy="373.81" rx="23.67" ry="18.32" style="fill: #d71e1e;"/>
    <ellipse cx="53.19" cy="296.14" rx="31.45" ry="24.33" style="fill: #d71e1e;"/>
    <ellipse cx="31.45" cy="296.14" rx="31.45" ry="24.33" style="fill: #d71e1e;"/>
    <path d="m42.25,235.61v36.3m0,51.79v44.83" style="fill: none; stroke: #fff; stroke-linecap: round; stroke-miterlimit: 3.84; stroke-width: 12px;"/>
    <ellipse cx="42.25" cy="233.51" rx="8.62" ry="8.34" style="fill: #fff;"/>
    <path d="m33.28,308.6c4.06-6.18,14.92-5.91,18.34,0m-18.34-17.54c4.06-6.18,14.92-5.91,18.34,0" style="fill: none; stroke: #fff; stroke-linecap: round; stroke-linejoin: round; stroke-width: 10px;"/>
  </g>
  <g>
    <ellipse cx="231.22" cy="230.53" rx="23.67" ry="18.32" style="fill: #d71e1e;"/>
    <ellipse cx="259" cy="230.53" rx="23.67" ry="18.32" style="fill: #d71e1e;"/>
    <ellipse cx="230.06" cy="373.81" rx="23.67" ry="18.32" style="fill: #d71e1e;"/>
    <path d="m245.16,363.27v-129.17" style="fill: none; stroke: #d71e1e; stroke-linecap: round; stroke-miterlimit: 3.84; stroke-width: 52.75px;"/>
    <ellipse cx="260.56" cy="373.81" rx="23.67" ry="18.32" style="fill: #d71e1e;"/>
    <ellipse cx="256.1" cy="296.14" rx="31.45" ry="24.33" style="fill: #d71e1e;"/>
    <ellipse cx="234.36" cy="296.14" rx="31.45" ry="24.33" style="fill: #d71e1e;"/>
    <path d="m245.16,235.61v36.3m0,51.79v44.83" style="fill: none; stroke: #fff; stroke-linecap: round; stroke-miterlimit: 3.84; stroke-width: 12px;"/>
    <ellipse cx="245.16" cy="233.51" rx="8.62" ry="8.34" style="fill: #fff;"/>
    <path d="m236.19,308.6c4.06-6.18,14.92-5.91,18.34,0m-18.34-17.54c4.06-6.18,14.92-5.91,18.34,0" style="fill: none; stroke: #fff; stroke-linecap: round; stroke-linejoin: round; stroke-width: 10px;"/>
  </g>
</svg>