<?xml version="1.0" encoding="UTF-8"?>
<svg id="_圖層_1" data-name="圖層 1" xmlns="http://www.w3.org/2000/svg" viewBox="0 0 300 400">
  <path d="m60.44,226.86c101.51,10.78,95.09-15.76,180.06-18.58,18.89-2.75,17.64-17.46-.45-16.02-90.37,2.24-58.78,34.94-177.69,16.09-29-5.18-24.26,14.57-1.92,18.5h0Z" style="fill: #d71e1e; fill-rule: evenodd;"/>
  <path d="m151.71,183.66c1.31-3.92-8-10.18-13.22-3.47-4.83,7.48-6.26,12.15-10.86,17.42-1.96,2.39-2.24,7.73-.22,9.27,7.57,6.2,6.72,4.78,11.5,14.74l20.53-1.76c-6.52-8.59-7.6-7.83-10.13-16.42-1.16-9.33-.81-10.18,2.4-19.77h0Zm25.79-37.96c-2.07-2.16-3.31-2.93-6.21,0l-15.39,15.54c-1.35,1.5-1.37,3.71-.26,4.97l9.17,8.83c4.35,4.25,5.46,7.31,2.9,12.34-3.42,9.62-5.99,19.37-6.1,24.71l21.18-3.49c-3.96-9.82-3.87-12.36,2.87-21.65,5.56-6.33,10.93-7.77,5.99-16.42l-14.15-24.84Zm22.4,80.36c-2.38,0-5.11.35-7.99.68-25.98,4.24-44.63,13.66-87.78,12.14-5.84.03-10.8,3.11-10.59,7.59.42,9.89,7.7,62.18,8.3,66.89.85,6.42,9.79,6.99,10.97,1.34.22-1.03.22-3.96.1-7.99.55-1.14,1.4-2.02,2.31-2.18l56.98-5.09c.58,0,1.01.55,1.32,1.33-.44,20.09-.68,39.74-.25,46.62.12,1.52.05,3.12,1.57,4.49,3.63,3.03,24.11,1.36,29.41-1.95,1.47-1.08,2-1.58,2.2-3.83-2.96-33.99-.67-77.22,1.6-110.87.6-7.45-2.91-9.15-8.15-9.15h0Zm-26.98,16.76c5.65-1.39,2.02,15.83.09,15.88l-58.83,4.61c-5.13-1.02-4.88-13.07-1.42-13.23,26.64-.9,35.74-3.18,60.16-7.26h0Zm-.13,29.15c1.71-.13,2.02,12.39-.38,12.59l-57.32,4.8c-4.1-1.15-4.35-11.96-.78-12.49l58.48-4.89Z" style="fill: #d71e1e; fill-rule: evenodd;"/>
  <path d="m152.8,242.84l-19.23.63-5.29,90.56c-.75,10.29,4.49,20.61,11.24,20.76l18.74-6.55-5.46-105.41Z" style="fill: #d71e1e; fill-rule: evenodd;"/>
  <path d="m91.71,351.46l.85,8.03c54.25,18.28,41.64-8.58,96.89-15.15l-.63-4.93c-42.24-2.99-64.35,13.18-97.11,12.05Z" style="fill: #d71e1e; fill-rule: evenodd;"/>
  <path d="m86.53,292.03c-4.79-14.35-18.05-11.53-15.57.89,13.9,43.45,17.94,67.5,19.8,70.86,10.79,18.23,18.4,13.45,19.08-2.43.11-4.85-14.23-43.49-23.31-69.31h0Z" style="fill: #d71e1e; fill-rule: evenodd;"/>
  <path d="m43.84,321.04c-8.36-1.3-7.6,9.08-3.32,11.29,59.85,26.47,123.84-8.86,177.97-5.69,2.06.37,5.31,1.56,8.29,3.2,9.56,5.05,3.73,19.51-.98,22.48-21.54,9.85-16.51.09-40.67,11.25-2.28,1.46-8.26,2.6-10.48,1.68-8.94-2.98-16.3-8.1-22.15-12.67l-11.19,5.65c6.91,8.6,17.1,12.67,25.54,16.37,6.75,3.21,14.13,2.85,19.03,3.01,25.11.35,48.59-9.3,60.4-10.76,3.46-.53,7.48-6.53,9.05-9.31,9.69-15.87,5.69-18.57-1.09-35.19-3.85-6.23-14.98-8.01-20.83-8.8-60.72-2.58-138.25,18.81-189.58,7.49h0Z" style="fill: #d71e1e; fill-rule: evenodd;"/>
  <path d="m119.4,21.02c-6.92,4.63-10.65,5.81-13.5,15.58-.45,1.58-.79,7.78,1.29,12.04,18.03,17.66-47.14,56.04-70.44,72.19-15.16,9.94-10.01,21.09,9.88,11.32,25.66-11.94,70.9-25.83,79.79-61.77.09-3.94,2.71-5.6,6.47-6.54,5.75-1.41.7-27.48-2.6-34.28-3.31-6.8-8.66-9.84-10.9-8.54h0Z" style="fill: #d71e1e; fill-rule: evenodd;"/>
  <path d="m100.88,86.2c1.2,4.59,5.38,16.36,4.61,21.29-3.51,9.02-8.42,12.45-10.38,22.04-.84,5.28,16.42,21.6,21.38,19.02,6.33-4.3,9.7-13.19,9.59-17.18-.69-19.2-11.63-32.8-12.02-54.91l-13.18,9.74Zm25.79-58.08c41.28,15.33,59.02-16.08,96.33-24.2,10.7-2.33,21.35,2.3,29.56,4.11,17.76,4.46,3.73,31.36-9.82,25.11-32.28-15.94-59.96,8.06-90.6,15.56-2.27.41-3.65-2.68-5.1-4.77-4.69-6.79-11.76-1.19-17.53-3.31l-2.84-12.51Z" style="fill: #d71e1e; fill-rule: evenodd;"/>
  <path d="m175.27,35.01l-28.05,6.84c8.7,10.69-11.9,52.85-22.25,80.5l25.17-3.8c2.53-28.77,18.63-55.42,25.13-83.53h0Z" style="fill: #d71e1e; fill-rule: evenodd;"/>
  <path d="m114.25,64.55c13.95,34.48,61.06-13.83,91.15-11.05v19.19c-30.88-5.6-82.69,35.12-95.04,6.63l3.89-14.78Z" style="fill: #d71e1e; fill-rule: evenodd;"/>
  <path d="m199.12,44.26c-2.46-.46-9.49,7.17-9.47,9.93.61,24.2.07,47.86-1.89,72.06-.71,11.33,21.11,2.36,22.01-3.01,3.03-25.34,1.73-73.55-.23-74.74-3.02-1.99-5.94-3.32-10.41-4.23h0Z" style="fill: #d71e1e; fill-rule: evenodd;"/>
  <path d="m112.93,120.89c96.53-30.72,146.76-8.13,149.57-2.23,1.9,3.24,1.49,9.99-.51,13.37-16.65,24.78-105.63-38.9-145.75,10.58l-3.31-21.72Z" style="fill: #d71e1e; fill-rule: evenodd;"/>
</svg>